<svg width="32" height="32" viewBox="0 0 32 32" fill="none" xmlns="http://www.w3.org/2000/svg">
<g clip-path="url(#clip0_1_5486)">
<path d="M16 32C24.8366 32 32 24.8366 32 16C32 7.16344 24.8366 0 16 0C7.16344 0 0 7.16344 0 16C0 24.8366 7.16344 32 16 32Z" fill="#0052B4"/>
<path d="M16.001 6.26086L16.5191 7.85518H18.1953L16.8391 8.84049L17.3572 10.4348L16.001 9.44943L14.6448 10.4348L15.1628 8.84049L13.8066 7.85518H15.483L16.001 6.26086Z" fill="#FFDA44"/>
<path d="M9.11364 9.11334L10.6074 9.87434L11.7927 8.68909L11.5304 10.3447L13.0241 11.1058L11.3684 11.368L11.1061 13.0238L10.3451 11.5301L8.68945 11.7924L9.87477 10.6071L9.11364 9.11334Z" fill="#FFDA44"/>
<path d="M6.26172 16L7.85603 15.4819V13.8056L8.84128 15.1619L10.4357 14.6438L9.45022 16L10.4357 17.3562L8.84128 16.8382L7.85603 18.1944V16.518L6.26172 16Z" fill="#FFDA44"/>
<path d="M9.11364 22.8866L9.8747 21.3929L8.68945 20.2076L10.3451 20.4699L11.1061 18.9763L11.3684 20.6319L13.024 20.8942L11.5305 21.6553L11.7927 23.3109L10.6074 22.1256L9.11364 22.8866Z" fill="#FFDA44"/>
<path d="M16.001 25.7391L15.4829 24.1448H13.8066L15.1629 23.1595L14.6448 21.5653L16.001 22.5506L17.3572 21.5653L16.8391 23.1595L18.1953 24.1448H16.519L16.001 25.7391Z" fill="#FFDA44"/>
<path d="M22.8869 22.8866L21.3932 22.1256L20.2078 23.3109L20.4701 21.6552L18.9766 20.8942L20.6322 20.6319L20.8944 18.9763L21.6554 20.4699L23.3111 20.2076L22.1257 21.393L22.8869 22.8866Z" fill="#FFDA44"/>
<path d="M25.7402 16L24.1459 16.518V18.1944L23.1606 16.8381L21.5664 17.3562L22.5517 16L21.5664 14.6438L23.1607 15.1619L24.1459 13.8056V15.482L25.7402 16Z" fill="#FFDA44"/>
<path d="M22.8869 9.11334L22.1258 10.6071L23.3111 11.7924L21.6554 11.53L20.8944 13.0237L20.6322 11.368L18.9766 11.1057L20.4701 10.3447L20.2078 8.68915L21.3932 9.8744L22.8869 9.11334Z" fill="#FFDA44"/>
</g>
<defs>
<clipPath id="clip0_1_5486">
<rect width="32" height="32" fill="white"/>
</clipPath>
</defs>
</svg>
